<svg width="134" height="45" viewBox="0 0 134 45" fill="none" xmlns="http://www.w3.org/2000/svg">
<g clip-path="url(#clip0_1_232)">
<path d="M126.18 0.46875H7.44445C3.58996 0.46875 0.465279 3.61675 0.465279 7.5V37.5C0.465279 41.3833 3.58996 44.5312 7.44445 44.5312H126.18C130.034 44.5312 133.159 41.3833 133.159 37.5V7.5C133.159 3.61675 130.034 0.46875 126.18 0.46875Z" fill="#050038"/>
<path d="M27.6594 22.8384C27.6714 21.8994 27.919 20.9786 28.3791 20.162C28.8391 19.3452 29.4968 18.6591 30.2909 18.1673C29.7864 17.4415 29.121 16.8442 28.3473 16.4228C27.5737 16.0015 26.7131 15.7676 25.8341 15.7399C23.9589 15.5416 22.1411 16.8703 21.1855 16.8703C20.2115 16.8703 18.7403 15.7596 17.1561 15.7924C16.1313 15.8258 15.1326 16.126 14.2573 16.6638C13.3819 17.2016 12.6598 17.9587 12.1613 18.8613C10.0017 22.6282 11.6126 28.1644 13.6813 31.2093C14.7164 32.7003 15.926 34.3659 17.5088 34.3068C19.0577 34.242 19.6362 33.3117 21.5058 33.3117C23.3581 33.3117 23.9008 34.3068 25.5157 34.2692C27.1777 34.242 28.2249 32.7716 29.2236 31.2664C29.9673 30.204 30.5395 29.0299 30.9192 27.7873C29.9536 27.376 29.1296 26.6873 28.5499 25.8071C27.9703 24.9271 27.6605 23.8946 27.6594 22.8384Z" fill="white"/>
<path d="M24.6083 13.7375C25.5144 12.6414 25.9609 11.2327 25.8528 9.81055C24.4683 9.95698 23.1894 10.6236 22.271 11.6776C21.822 12.1925 21.4781 12.7914 21.2589 13.4403C21.0398 14.0891 20.9497 14.7752 20.9939 15.4591C21.6863 15.4663 22.3714 15.3151 22.9975 15.0169C23.6235 14.7186 24.1743 14.2812 24.6083 13.7375Z" fill="white"/>
<path d="M47.2391 30.5322H41.9535L40.6842 34.3081H38.4454L43.4518 20.3379H45.7778L50.7843 34.3081H48.5073L47.2391 30.5322ZM42.5009 28.7897H46.6906L44.6253 22.6616H44.5675L42.5009 28.7897Z" fill="white"/>
<path d="M61.5963 29.2159C61.5963 32.3811 59.9147 34.4146 57.3771 34.4146C56.7343 34.4484 56.095 34.2993 55.5325 33.9842C54.9699 33.669 54.5068 33.2006 54.1962 32.6326H54.1482V37.6775H52.073V24.1226H54.0817V25.8167H54.1198C54.4448 25.2515 54.9156 24.7855 55.4825 24.4684C56.0494 24.1513 56.6909 23.995 57.339 24.016C59.9048 24.016 61.5963 26.0595 61.5963 29.2159ZM59.4632 29.2159C59.4632 27.1537 58.4055 25.798 56.7915 25.798C55.206 25.798 54.1394 27.1823 54.1394 29.2159C54.1394 31.2682 55.206 32.6425 56.7915 32.6425C58.4055 32.6425 59.4632 31.2967 59.4632 29.2159Z" fill="white"/>
<path d="M72.7248 29.2159C72.7248 32.3811 71.0432 34.4146 68.5056 34.4146C67.8628 34.4484 67.2235 34.2993 66.661 33.9841C66.0984 33.669 65.6353 33.2006 65.3246 32.6326H65.2766V37.6775H63.2015V24.1226H65.2101V25.8167H65.2483C65.5732 25.2515 66.0441 24.7854 66.6109 24.4684C67.1778 24.1513 67.8194 23.995 68.4674 24.016C71.0334 24.016 72.7248 26.0595 72.7248 29.2159ZM70.5918 29.2159C70.5918 27.1537 69.5339 25.798 67.92 25.798C66.3345 25.798 65.268 27.1823 65.268 29.2159C65.268 31.2682 66.3345 32.6425 67.92 32.6425C69.534 32.6425 70.5918 31.2967 70.5918 29.2159Z" fill="white"/>
<path d="M80.0783 30.4157C80.2321 31.801 81.5679 32.7107 83.3934 32.7107C85.1426 32.7107 86.401 31.801 86.401 30.5519C86.401 29.4675 85.642 28.8183 83.8449 28.3733L82.0477 27.9371C79.5015 27.3175 78.3194 26.1178 78.3194 24.171C78.3194 21.7606 80.4044 20.105 83.365 20.105C86.2952 20.105 88.3039 21.7606 88.3715 24.171H86.2766C86.1513 22.7769 85.0074 21.9354 83.3356 21.9354C81.6639 21.9354 80.5199 22.7868 80.5199 24.0261C80.5199 25.0137 81.2506 25.5949 83.0379 26.0397L84.5656 26.4177C87.4107 27.0955 88.5929 28.247 88.5929 30.2904C88.5929 32.904 86.5264 34.541 83.2396 34.541C80.1645 34.541 78.0881 32.9424 77.954 30.4156L80.0783 30.4157Z" fill="white"/>
<path d="M93.0723 21.7124V24.1228H94.9948V25.7784H93.0723V31.3935C93.0723 32.2658 93.4566 32.6723 94.3016 32.6723C94.5305 32.6683 94.7585 32.6522 94.9846 32.624V34.2697C94.6049 34.3413 94.2188 34.3736 93.8316 34.3664C91.7852 34.3664 90.9868 33.5918 90.9868 31.6165V25.7784H89.5169V24.1228H90.9868V21.7124H93.0723Z" fill="white"/>
<path d="M96.1068 29.2161C96.1068 26.0114 97.981 23.9976 100.902 23.9976C103.833 23.9976 105.698 26.0113 105.698 29.2161C105.698 32.4295 103.843 34.4346 100.902 34.4346C97.9624 34.4346 96.1068 32.4295 96.1068 29.2161ZM103.584 29.2161C103.584 27.0177 102.584 25.7202 100.902 25.7202C99.2205 25.7202 98.222 27.0276 98.222 29.2161C98.222 31.4232 99.2205 32.7108 100.902 32.7108C102.584 32.7108 103.584 31.4232 103.584 29.2161Z" fill="white"/>
<path d="M107.408 24.123H109.388V25.8565H109.435C109.569 25.3151 109.885 24.8366 110.328 24.5016C110.77 24.1664 111.314 23.9951 111.868 24.0164C112.107 24.0156 112.345 24.0417 112.579 24.0944V26.05C112.276 25.957 111.962 25.9143 111.646 25.9236C111.345 25.9113 111.044 25.9648 110.765 26.0806C110.486 26.1963 110.235 26.3715 110.03 26.5942C109.824 26.8168 109.669 27.0816 109.575 27.3703C109.481 27.6591 109.449 27.965 109.484 28.267V34.3084H107.408V24.123Z" fill="white"/>
<path d="M122.148 31.3166C121.868 33.1657 120.082 34.4346 117.794 34.4346C114.854 34.4346 113.028 32.4493 113.028 29.2644C113.028 26.0696 114.863 23.9976 117.707 23.9976C120.504 23.9976 122.263 25.9333 122.263 29.0216V29.7379H115.123V29.8642C115.09 30.2391 115.137 30.6167 115.26 30.972C115.382 31.3274 115.579 31.6522 115.836 31.9251C116.093 32.198 116.406 32.4126 116.751 32.5547C117.097 32.6967 117.47 32.7631 117.843 32.7492C118.333 32.7955 118.825 32.6812 119.246 32.423C119.667 32.1649 119.993 31.7768 120.178 31.3166H122.148ZM115.133 28.2767H120.187C120.205 27.9397 120.155 27.6024 120.038 27.286C119.922 26.9697 119.741 26.6811 119.508 26.4383C119.275 26.1956 118.995 26.004 118.685 25.8755C118.375 25.747 118.042 25.6844 117.707 25.6916C117.369 25.6897 117.034 25.755 116.721 25.8841C116.409 26.0132 116.125 26.2034 115.885 26.4438C115.646 26.6841 115.456 26.9698 115.327 27.2844C115.198 27.599 115.132 27.9362 115.133 28.2767Z" fill="white"/>
<path d="M42.2407 9.82205C42.6757 9.79065 43.1123 9.85683 43.5189 10.0159C43.9255 10.175 44.2919 10.4231 44.5919 10.7422C44.8918 11.0612 45.1177 11.4434 45.2533 11.8611C45.3888 12.2788 45.4307 12.7216 45.3758 13.1575C45.3758 15.302 44.2254 16.5347 42.2407 16.5347H39.8339V9.82205H42.2407ZM40.8688 15.5854H42.125C42.4359 15.6042 42.7471 15.5528 43.0358 15.4351C43.3244 15.3174 43.5835 15.1364 43.794 14.9051C44.0045 14.6738 44.1611 14.3982 44.2525 14.0983C44.344 13.7983 44.3678 13.4816 44.3224 13.1712C44.3645 12.862 44.3382 12.5473 44.2454 12.2495C44.1526 11.9518 43.9956 11.6784 43.7855 11.449C43.5756 11.2196 43.3177 11.0398 43.0307 10.9225C42.7436 10.8052 42.4344 10.7534 42.125 10.7707H40.8688V15.5854Z" fill="white"/>
<path d="M46.5444 14.0001C46.5128 13.6671 46.5507 13.3312 46.6554 13.0139C46.7602 12.6966 46.9297 12.4048 47.1529 12.1574C47.3762 11.9099 47.6484 11.7122 47.9519 11.5768C48.2554 11.4415 48.5837 11.3716 48.9157 11.3716C49.2477 11.3716 49.576 11.4415 49.8795 11.5768C50.1831 11.7122 50.4552 11.9099 50.6785 12.1574C50.9018 12.4048 51.0712 12.6966 51.176 13.0139C51.2808 13.3312 51.3186 13.6671 51.287 14.0001C51.3192 14.3332 51.2819 14.6696 51.1773 14.9875C51.0728 15.3053 50.9034 15.5976 50.6801 15.8456C50.4569 16.0936 50.1845 16.2917 49.8806 16.4273C49.5767 16.5629 49.2481 16.6329 48.9157 16.6329C48.5834 16.6329 48.2547 16.5629 47.9509 16.4273C47.647 16.2917 47.3746 16.0936 47.1512 15.8456C46.928 15.5976 46.7586 15.3053 46.6541 14.9875C46.5496 14.6696 46.5122 14.3332 46.5444 14.0001ZM50.2663 14.0001C50.2663 12.902 49.7766 12.2598 48.9174 12.2598C48.0548 12.2598 47.5695 12.902 47.5695 14.0001C47.5695 15.107 48.0548 15.7441 48.9174 15.7441C49.7767 15.7441 50.2663 15.1026 50.2663 14.0001Z" fill="white"/>
<path d="M57.5915 16.535H56.5621L55.5229 12.8041H55.4444L54.4095 16.535H53.3899L52.0039 11.4692H53.0104L53.9112 15.3347H53.9853L55.0191 11.4692H55.971L57.0049 15.3347H57.0833L57.9797 11.4692H58.9721L57.5915 16.535Z" fill="white"/>
<path d="M60.1372 11.4695H61.0925V12.2742H61.1666C61.2923 11.9852 61.5045 11.7428 61.7735 11.5811C62.0425 11.4193 62.3549 11.3461 62.6671 11.3717C62.9118 11.3531 63.1575 11.3903 63.3859 11.4804C63.6144 11.5705 63.8197 11.7113 63.987 11.8922C64.1541 12.0731 64.2787 12.2897 64.3515 12.5258C64.4243 12.7618 64.4434 13.0113 64.4075 13.2558V16.5352H63.4151V13.5068C63.4151 12.6928 63.064 12.2879 62.3301 12.2879C62.164 12.2801 61.9982 12.3086 61.8441 12.3714C61.6899 12.4343 61.551 12.5299 61.437 12.6519C61.323 12.7737 61.2364 12.9191 61.1834 13.0779C61.1302 13.2367 61.1119 13.4051 61.1295 13.5717V16.5353H60.1372V11.4695Z" fill="white"/>
<path d="M65.9895 9.4917H66.9819V16.535H65.9895V9.4917Z" fill="white"/>
<path d="M68.3616 14.0001C68.33 13.6672 68.3678 13.3313 68.4726 13.014C68.5775 12.6966 68.7469 12.4049 68.9703 12.1574C69.1935 11.9099 69.4657 11.7122 69.7692 11.5768C70.0729 11.4415 70.4012 11.3716 70.7331 11.3716C71.0651 11.3716 71.3934 11.4415 71.697 11.5768C72.0006 11.7122 72.2727 11.9099 72.496 12.1574C72.7193 12.4049 72.8888 12.6966 72.9936 13.014C73.0984 13.3313 73.1363 13.6672 73.1046 14.0001C73.1368 14.3334 73.0994 14.6697 72.9949 14.9876C72.8904 15.3054 72.721 15.5977 72.4976 15.8457C72.2743 16.0937 72.0019 16.2918 71.698 16.4273C71.3942 16.563 71.0655 16.633 70.7331 16.633C70.4008 16.633 70.0721 16.563 69.7682 16.4273C69.4643 16.2918 69.1919 16.0937 68.9686 15.8457C68.7453 15.5977 68.5759 15.3054 68.4713 14.9876C68.3668 14.6697 68.3294 14.3334 68.3616 14.0001ZM72.0834 14.0001C72.0834 12.9021 71.5938 12.2599 70.7345 12.2599C69.8719 12.2599 69.3867 12.9021 69.3867 14.0001C69.3867 15.1071 69.872 15.7442 70.7345 15.7442C71.5938 15.7442 72.0834 15.1026 72.0834 14.0001Z" fill="white"/>
<path d="M74.1482 15.1026C74.1482 14.1906 74.8222 13.665 76.0184 13.5903L77.3804 13.5112V13.0739C77.3804 12.5389 77.0292 12.2368 76.351 12.2368C75.797 12.2368 75.4131 12.4416 75.3031 12.7999H74.3423C74.4437 11.9297 75.2562 11.3716 76.3967 11.3716C77.6574 11.3716 78.3684 12.0038 78.3684 13.0739V16.5351H77.4131V15.8233H77.3346C77.1752 16.0786 76.9514 16.2868 76.6861 16.4266C76.4208 16.5663 76.1234 16.6326 75.8243 16.6187C75.6132 16.6408 75.3998 16.6181 75.198 16.552C74.9962 16.486 74.8102 16.3781 74.6523 16.2352C74.4944 16.0924 74.368 15.9178 74.2811 15.7227C74.1943 15.5276 74.149 15.3164 74.1482 15.1026ZM77.3804 14.6697V14.2461L76.1525 14.3253C75.4601 14.372 75.146 14.6092 75.146 15.0559C75.146 15.5118 75.5386 15.7771 76.0784 15.7771C76.2366 15.7932 76.3964 15.7772 76.5482 15.7298C76.7001 15.6825 76.841 15.6048 76.9624 15.5015C77.0839 15.3981 77.1835 15.2713 77.2553 15.1283C77.3271 14.9855 77.3696 14.8295 77.3804 14.6697Z" fill="white"/>
<path d="M79.6733 13.9999C79.6733 12.3993 80.4902 11.3852 81.7606 11.3852C82.0748 11.3706 82.3867 11.4465 82.6598 11.6038C82.9328 11.7612 83.1557 11.9936 83.3025 12.2739H83.3767V9.4917H84.369V16.535H83.4182V15.7347H83.3396C83.1815 16.013 82.9507 16.2426 82.6724 16.3984C82.3941 16.5542 82.0787 16.6303 81.7606 16.6185C80.4814 16.6186 79.6733 15.6045 79.6733 13.9999ZM80.6984 13.9999C80.6984 15.0744 81.2012 15.7209 82.042 15.7209C82.8783 15.7209 83.3953 15.065 83.3953 14.0044C83.3953 12.9485 82.8729 12.2834 82.042 12.2834C81.2066 12.2834 80.6984 12.9343 80.6984 13.9999Z" fill="white"/>
<path d="M88.474 14.0001C88.4423 13.6671 88.4802 13.3312 88.585 13.0139C88.6898 12.6966 88.8592 12.4048 89.0825 12.1574C89.3057 11.9099 89.5779 11.7122 89.8814 11.5768C90.185 11.4415 90.5133 11.3716 90.8452 11.3716C91.1772 11.3716 91.5054 11.4415 91.8091 11.5768C92.1126 11.7122 92.3847 11.9099 92.608 12.1574C92.8313 12.4048 93.0007 12.6966 93.1058 13.0139C93.21 13.3312 93.2482 13.6671 93.2165 14.0001C93.2491 14.3332 93.211 14.6696 93.1067 14.9875C93.0023 15.3053 92.833 15.5976 92.6096 15.8456C92.3863 16.0936 92.114 16.2917 91.8101 16.4273C91.5063 16.5629 91.1776 16.6329 90.8452 16.6329C90.5129 16.6329 90.1842 16.5629 89.8803 16.4273C89.5765 16.2917 89.3041 16.0936 89.0808 15.8456C88.8574 15.5976 88.6881 15.3053 88.5836 14.9875C88.4791 14.6696 88.4418 14.3332 88.474 14.0001ZM92.1958 14.0001C92.1958 12.902 91.7062 12.2598 90.8469 12.2598C89.9843 12.2598 89.4991 12.902 89.4991 14.0001C89.4991 15.107 89.9843 15.7441 90.8469 15.7441C91.7062 15.7441 92.1958 15.1026 92.1958 14.0001Z" fill="white"/>
<path d="M94.5491 11.4695H95.5048V12.2742H95.5792C95.7048 11.9852 95.917 11.7428 96.1859 11.5811C96.4549 11.4193 96.7675 11.3461 97.0793 11.3717C97.324 11.3531 97.5697 11.3903 97.7986 11.4804C98.0266 11.5705 98.2322 11.7113 98.3997 11.8922C98.5663 12.0731 98.691 12.2897 98.7636 12.5258C98.8371 12.7618 98.8557 13.0113 98.8203 13.2558V16.5352H97.8274V13.5068C97.8274 12.6928 97.4766 12.2879 96.7424 12.2879C96.5768 12.2801 96.4102 12.3086 96.2567 12.3714C96.1022 12.4343 95.9635 12.5299 95.8491 12.6519C95.7356 12.7737 95.649 12.9191 95.596 13.0779C95.5429 13.2367 95.5243 13.4051 95.542 13.5717V16.5353H94.5491V11.4695Z" fill="white"/>
<path d="M104.427 10.208V11.4924H105.517V12.3344H104.427V14.9393C104.427 15.4699 104.645 15.7023 105.138 15.7023C105.264 15.7019 105.391 15.6942 105.517 15.6793V16.5119C105.339 16.5441 105.157 16.5612 104.977 16.563C103.873 16.563 103.434 16.1719 103.434 15.1953V12.3344H102.636V11.4923H103.434V10.208H104.427Z" fill="white"/>
<path d="M106.872 9.4917H107.856V12.2833H107.934C108.066 11.9916 108.284 11.7479 108.559 11.5855C108.833 11.4231 109.15 11.3499 109.468 11.3759C109.711 11.3625 109.954 11.4034 110.18 11.4958C110.406 11.588 110.609 11.7294 110.774 11.9098C110.94 12.0902 111.064 12.3051 111.137 12.5393C111.211 12.7734 111.231 13.021 111.2 13.2644V16.535H110.206V13.511C110.206 12.7019 109.832 12.2921 109.131 12.2921C108.96 12.278 108.788 12.3017 108.627 12.3613C108.467 12.421 108.321 12.5153 108.201 12.6377C108.08 12.76 107.988 12.9074 107.93 13.0695C107.872 13.2317 107.85 13.4046 107.864 13.5764V16.535H106.872V9.4917Z" fill="white"/>
<path d="M116.984 15.1674C116.849 15.6304 116.557 16.0309 116.158 16.2988C115.76 16.5667 115.281 16.685 114.805 16.633C114.474 16.6418 114.145 16.5779 113.84 16.4457C113.536 16.3135 113.264 16.1162 113.043 15.8674C112.821 15.6185 112.658 15.3244 112.561 15.005C112.464 14.6857 112.437 14.349 112.483 14.0183C112.438 13.6865 112.465 13.3491 112.562 13.0289C112.659 12.7086 112.822 12.413 113.042 12.1621C113.262 11.9111 113.532 11.7107 113.836 11.5743C114.139 11.4379 114.469 11.3689 114.801 11.3717C116.199 11.3717 117.043 12.3347 117.043 13.9254V14.2743H113.493V14.3303C113.478 14.5162 113.501 14.7034 113.561 14.8797C113.622 15.056 113.719 15.2177 113.844 15.3544C113.971 15.4909 114.123 15.5995 114.294 15.6731C114.464 15.7467 114.647 15.7836 114.832 15.7816C115.07 15.8103 115.31 15.7672 115.523 15.6578C115.736 15.5485 115.912 15.3778 116.028 15.1674H116.984ZM113.493 13.5349H116.033C116.046 13.3649 116.023 13.1941 115.966 13.0336C115.909 12.873 115.819 12.7262 115.702 12.6026C115.586 12.479 115.445 12.3814 115.288 12.3159C115.133 12.2505 114.965 12.2187 114.795 12.2225C114.624 12.2204 114.454 12.2529 114.295 12.3181C114.135 12.3832 113.991 12.4799 113.869 12.6021C113.748 12.7245 113.652 12.87 113.587 13.0302C113.523 13.1904 113.491 13.362 113.493 13.5349Z" fill="white"/>
<path d="M126.18 0.46875H7.44445C3.58996 0.46875 0.465279 3.61675 0.465279 7.5V37.5C0.465279 41.3833 3.58996 44.5312 7.44445 44.5312H126.18C130.034 44.5312 133.159 41.3833 133.159 37.5V7.5C133.159 3.61675 130.034 0.46875 126.18 0.46875Z" stroke="#A6A6A6"/>
</g>
<defs>
<clipPath id="clip0_1_232">
<rect width="134" height="45" fill="white"/>
</clipPath>
</defs>
</svg>
