<svg width="152" height="45" viewBox="0 0 152 45" fill="none" xmlns="http://www.w3.org/2000/svg">
<g clip-path="url(#clip0_1_258)">
<path d="M144.165 0.46875H8.01746C4.15485 0.46875 1.02359 3.61675 1.02359 7.5V37.5C1.02359 41.3833 4.15485 44.5312 8.01746 44.5312H144.165C148.027 44.5312 151.159 41.3833 151.159 37.5V7.5C151.159 3.61675 148.027 0.46875 144.165 0.46875Z" fill="#050038"/>
<path d="M53.6181 11.5236C53.6181 12.4662 53.3405 13.2168 52.7845 13.7767C52.1529 14.4425 51.3298 14.7755 50.3179 14.7755C49.3488 14.7755 48.5248 14.438 47.8473 13.7622C47.1685 13.0867 46.8298 12.2492 46.8298 11.2498C46.8298 10.25 47.1685 9.41295 47.8473 8.73703C48.5248 8.06158 49.3488 7.72363 50.3179 7.72363C50.7987 7.72363 51.2591 7.81813 51.6961 8.00668C52.1332 8.19568 52.4838 8.44656 52.7461 8.76077L52.156 9.35443C51.7114 8.82051 51.0995 8.55377 50.3179 8.55377C49.611 8.55377 49 8.80341 48.4842 9.30302C47.9683 9.80323 47.7106 10.4518 47.7106 11.2498C47.7106 12.0479 47.9683 12.6965 48.4842 13.1966C49 13.6963 49.611 13.9459 50.3179 13.9459C51.0676 13.9459 51.6927 13.6949 52.1931 13.1923C52.518 12.8647 52.7059 12.4096 52.756 11.825H50.3179V11.0143H53.5714C53.6028 11.1905 53.6181 11.3598 53.6181 11.5236Z" fill="white"/>
<path d="M53.619 11.5238H53.5071C53.5061 12.4449 53.2386 13.1602 52.7061 13.6973L52.7049 13.6983C52.0934 14.3411 51.307 14.6619 50.3186 14.6632C49.3754 14.6619 48.5859 14.3385 47.9267 13.6828C47.269 13.0258 46.9437 12.2239 46.9424 11.25C46.9437 10.2757 47.269 9.47418 47.9267 8.81767C48.5859 8.16157 49.3754 7.83768 50.3186 7.83633C50.7851 7.83633 51.2292 7.92779 51.6528 8.11015C52.0767 8.29387 52.4116 8.53462 52.6612 8.83353L52.7469 8.76097L52.6678 8.68143L52.0776 9.27554L52.1567 9.35463L52.243 9.28263C51.7777 8.72227 51.1248 8.43978 50.3186 8.44147C49.5857 8.44057 48.9409 8.70382 48.4076 9.22244C47.8691 9.74277 47.5986 10.4278 47.5994 11.25C47.5986 12.0723 47.8691 12.7573 48.4076 13.2776C48.9409 13.7962 49.5857 14.0595 50.3186 14.0586C51.0933 14.06 51.7533 13.7958 52.273 13.272C52.6202 12.9221 52.8168 12.4374 52.8684 11.8349L52.8788 11.7127H50.4305V11.127H53.5722V11.0145L53.4619 11.0343C53.4926 11.2048 53.5071 11.3669 53.5071 11.5238H53.619H53.7309C53.7309 11.3528 53.7151 11.1771 53.6823 10.9943L53.6657 10.902H50.2067V11.8252V11.9377H52.7569V11.8252L52.6454 11.8156C52.5961 12.3816 52.4168 12.8079 52.1147 13.1129C51.6339 13.5945 51.0438 13.8322 50.3186 13.8336C49.6381 13.8327 49.0607 13.5971 48.5628 13.116C48.0698 12.6365 47.8244 12.0244 47.8232 11.25C47.8244 10.4757 48.0698 9.86362 48.5628 9.38409C49.0607 8.90294 49.6381 8.66737 50.3186 8.66647C51.0754 8.66827 51.6467 8.91959 52.0711 9.42721L52.1498 9.52124L52.8261 8.8405L52.8985 8.76761L52.8325 8.68885C52.5576 8.35934 52.1913 8.09778 51.741 7.9036C51.2899 7.70887 50.8139 7.61133 50.3186 7.61133C49.3238 7.61043 48.4653 7.96199 47.7689 8.65769C47.07 9.35204 46.7178 10.2248 46.7186 11.25C46.7178 12.2748 47.07 13.1481 47.7694 13.8428C48.4653 14.5381 49.3238 14.8892 50.3186 14.8882C51.3546 14.8892 52.2141 14.5432 52.8662 13.8546L52.7853 13.7769L52.8644 13.8564C53.444 13.2741 53.7316 12.4875 53.7309 11.5238H53.619Z" fill="white"/>
<path d="M58.7778 8.70424H55.7201V10.8445H58.4775V11.6556H55.7201V13.7958H58.7778V14.625H54.8581V7.875H58.7778V8.70424Z" fill="white"/>
<path d="M58.7767 8.70443V8.59193H55.6072V10.9572H58.3645V11.5429L55.6072 11.5433V13.9085H58.6648V14.5127H54.969V7.9877H58.6648V8.70443H58.7767H58.8886V7.8752V7.7627H54.7452V14.7377H58.8886V13.796V13.6835H55.831V11.7683H58.5884V10.8447V10.7322H55.831V8.81693H58.8886V8.70443H58.7767Z" fill="white"/>
<path d="M62.4159 14.625H61.5526V8.70424H59.6773V7.875H64.2911V8.70424H62.4159V14.625Z" fill="white"/>
<path d="M62.4149 14.6252V14.5127H61.6635V8.59193H59.7882V7.9877H64.1782V8.59193H62.303V14.6252H62.4149H62.5268V8.81693H64.402V7.8752V7.7627H59.5644V8.70443V8.81693H61.4397V14.7377H62.4149H62.5268V14.6252H62.4149Z" fill="white"/>
<path d="M67.6292 14.625V7.875H68.4917V14.625H67.6292Z" fill="white"/>
<path d="M67.6282 14.6252H67.7401V7.9877H68.3787V14.5127H67.6282V14.6252V14.7377H68.4906H68.6025V7.7627H67.6282H67.5163V14.7377H67.6282V14.6252Z" fill="white"/>
<path d="M72.3183 14.625H71.455V8.70424H69.5798V7.875H74.1935V8.70424H72.3183V14.625Z" fill="white"/>
<path d="M72.3173 14.6252V14.5127H71.5659V8.59193H69.6907V7.9877H74.0806V8.59193H72.2054V14.6252H72.3173H72.4292V8.81693H74.3044V7.8752V7.7627H69.4669V8.70443V8.81693H71.3421V14.7377H72.3173H72.4292V14.6252H72.3173Z" fill="white"/>
<path d="M78.6405 13.1874C79.1374 13.6932 79.7455 13.9459 80.4646 13.9459C81.1837 13.9459 81.7921 13.6932 82.2883 13.1874C82.7857 12.6816 83.0349 12.035 83.0349 11.2498C83.0349 10.4645 82.7857 9.81805 82.2883 9.31225C81.7921 8.80645 81.1837 8.55377 80.4646 8.55377C79.7455 8.55377 79.1374 8.80645 78.6405 9.31225C78.1443 9.81805 77.8952 10.4645 77.8952 11.2498C77.8952 12.035 78.1443 12.6816 78.6405 13.1874ZM82.9264 13.7525C82.2663 14.435 81.4454 14.7755 80.4646 14.7755C79.4828 14.7755 78.6623 14.435 78.0037 13.7525C77.3431 13.0709 77.0145 12.2364 77.0145 11.2498C77.0145 10.2632 77.3431 9.4287 78.0037 8.74716C78.6623 8.06462 79.4828 7.72363 80.4646 7.72363C81.4403 7.72363 82.2589 8.06642 82.9221 8.75155C83.5843 9.43667 83.9157 10.2694 83.9157 11.2498C83.9157 12.2364 83.5851 13.0709 82.9264 13.7525Z" fill="white"/>
<path d="M78.6414 13.1876L78.5617 13.2667C79.0772 13.7928 79.7202 14.06 80.4654 14.0586C81.2102 14.06 81.8541 13.7928 82.3686 13.2667C82.8875 12.7402 83.1484 12.0591 83.1476 11.25C83.1484 10.441 82.8875 9.75984 82.3686 9.23336C81.8541 8.70731 81.2102 8.44012 80.4654 8.44147C79.7202 8.44012 79.0772 8.70731 78.5617 9.23336C78.0442 9.75984 77.7828 10.441 77.7842 11.25C77.7828 12.0591 78.0442 12.7402 78.5617 13.2667L78.6414 13.1876L78.7209 13.1085C78.2462 12.6229 78.0088 12.012 78.008 11.25C78.0088 10.4881 78.2462 9.87721 78.7209 9.39149C79.1999 8.90598 79.7721 8.66782 80.4654 8.66647C81.1582 8.66782 81.7317 8.90598 82.2095 9.39149C82.6851 9.87721 82.9224 10.4881 82.9234 11.25C82.9224 12.012 82.6851 12.6229 82.2095 13.1085C81.7317 13.5941 81.1582 13.8322 80.4654 13.8336C79.7721 13.8322 79.1999 13.5941 78.7209 13.1085L78.6414 13.1876ZM82.9273 13.7527L82.8473 13.6746C82.2056 14.3355 81.421 14.6619 80.4654 14.6632C79.5094 14.6619 78.7248 14.3355 78.0844 13.6746C77.4441 13.0114 77.1281 12.2116 77.1272 11.25C77.1281 10.2885 77.4441 9.48871 78.0844 8.82554C78.7248 8.16461 79.5094 7.83768 80.4654 7.83633C81.4148 7.83768 82.1977 8.16596 82.8429 8.83038C83.4855 9.49659 83.8033 10.2952 83.8046 11.25C83.8033 12.2116 83.4863 13.0114 82.8473 13.6746L82.9273 13.7527L83.0078 13.8309C83.6861 13.1304 84.0291 12.2617 84.0284 11.25C84.0291 10.2441 83.6848 9.37715 83.0033 8.67355C82.3214 7.96727 81.4672 7.61009 80.4654 7.61133C79.4583 7.61009 78.6016 7.96558 77.9241 8.66916C77.2444 9.37003 76.9025 10.2384 76.9034 11.25C76.9025 12.2617 77.2444 13.1304 77.9241 13.8313C78.6016 14.5348 79.4583 14.8892 80.4654 14.8882C81.4721 14.8892 82.3288 14.5344 83.0078 13.8309L82.9273 13.7527Z" fill="white"/>
<path d="M85.1266 14.625V7.875H86.1766L89.4397 13.126H89.4768L89.4397 11.8252V7.875H90.303V14.625H89.4025L85.9886 9.11948H85.9514L85.9886 10.4208V14.625H85.1266Z" fill="white"/>
<path d="M85.1275 14.6252H85.2394V7.9877H86.1153L89.3783 13.2388H89.4777H89.5925L89.5523 11.8237V7.9877H90.1919V14.5127H89.4654L86.0515 9.00717H85.9523H85.8373L85.8775 10.4228V14.5127H85.1275V14.6252V14.7377H85.9894H86.1013V10.4191L86.0642 9.11663L85.9523 9.11967V9.23217H85.9894V9.11967L85.8946 9.17952L89.3412 14.7377H90.3038H90.4157V7.7627H89.4404H89.3285V11.8268L89.3657 13.1293L89.4777 13.1263V13.0138H89.4404V13.1263L89.5354 13.0665L86.2394 7.7627H85.1275H85.0156V14.7377H85.1275V14.6252Z" fill="white"/>
<path d="M120.221 33.75H122.309V19.6862H120.221V33.75ZM139.028 24.7522L136.634 30.8496H136.563L134.078 24.7522H131.829L135.554 33.2745L133.431 38.0148H135.609L141.35 24.7522H139.028ZM127.187 32.1526C126.501 32.1526 125.548 31.8089 125.548 30.9582C125.548 29.8727 126.736 29.4565 127.761 29.4565C128.681 29.4565 129.111 29.6555 129.67 29.9272C129.508 31.2298 128.392 32.1526 127.187 32.1526ZM127.438 24.4445C125.927 24.4445 124.361 25.1143 123.713 26.5979L125.566 27.3757C125.962 26.5979 126.7 26.3444 127.474 26.3444C128.554 26.3444 129.651 26.996 129.67 28.154V28.2986C129.291 28.0815 128.482 27.7559 127.492 27.7559C125.494 27.7559 123.46 28.8593 123.46 30.9221C123.46 32.8038 125.098 34.0163 126.933 34.0163C128.338 34.0163 129.111 33.383 129.598 32.6413H129.67V33.7267H131.685V28.3346C131.685 25.8381 129.832 24.4445 127.438 24.4445ZM114.533 26.4643H111.564V21.6436H114.533C116.094 21.6436 116.981 22.9429 116.981 24.0539C116.981 25.1437 116.094 26.4643 114.533 26.4643ZM114.48 19.6862H109.476V33.75H111.564V28.4217H114.48C116.794 28.4217 119.069 26.7372 119.069 24.0539C119.069 21.3706 116.794 19.6862 114.48 19.6862ZM87.1972 32.1552C85.7547 32.1552 84.5469 30.9409 84.5469 29.2733C84.5469 27.5881 85.7547 26.3553 87.1972 26.3553C88.6213 26.3553 89.739 27.5881 89.739 29.2733C89.739 30.9409 88.6213 32.1552 87.1972 32.1552ZM89.5948 25.5397H89.5226C89.0541 24.9781 88.1523 24.4705 87.0166 24.4705C84.637 24.4705 82.4558 26.5728 82.4558 29.2733C82.4558 31.9557 84.637 34.04 87.0166 34.04C88.1523 34.04 89.0541 33.5324 89.5226 32.9528H89.5948V33.6414C89.5948 35.4723 88.6213 36.4509 87.0529 36.4509C85.773 36.4509 84.9797 35.5263 84.6549 34.7471L82.8343 35.5083C83.3572 36.7769 84.7454 38.3358 87.0529 38.3358C89.5047 38.3358 91.5779 36.8854 91.5779 33.3514V24.7606H89.5948V25.5397ZM93.02 33.75H95.111V19.6857H93.02V33.75ZM98.1939 29.1103C98.1398 27.2614 99.6187 26.3193 100.682 26.3193C101.512 26.3193 102.214 26.7359 102.448 27.3345L98.1939 29.1103ZM104.684 27.5155C104.288 26.4458 103.079 24.4705 100.61 24.4705C98.1575 24.4705 96.1209 26.4098 96.1209 29.2553C96.1209 31.9377 98.1398 34.04 100.844 34.04C103.025 34.04 104.288 32.6988 104.811 31.9196L103.188 30.832C102.648 31.6296 101.908 32.1552 100.844 32.1552C99.7801 32.1552 99.0238 31.6657 98.5361 30.7054L104.9 28.0591L104.684 27.5155ZM53.9834 25.9386V27.9685H58.8148C58.6705 29.1103 58.2919 29.9439 57.715 30.5239C57.0121 31.231 55.9123 32.0102 53.9834 32.0102C51.0087 32.0102 48.6833 29.5998 48.6833 26.6093C48.6833 23.6188 51.0087 21.208 53.9834 21.208C55.5879 21.208 56.7594 21.8425 57.6249 22.6581L59.049 21.2265C57.8413 20.0663 56.2366 19.1782 53.9834 19.1782C49.9089 19.1782 46.4837 22.5132 46.4837 26.6093C46.4837 30.7054 49.9089 34.04 53.9834 34.04C56.1829 34.04 57.8413 33.3154 59.1391 31.9557C60.4732 30.6145 60.888 28.7297 60.888 27.2074C60.888 26.7359 60.8521 26.3013 60.7796 25.9386H53.9834ZM66.3808 32.1552C64.9383 32.1552 63.6943 30.9589 63.6943 29.2553C63.6943 27.5335 64.9383 26.3553 66.3808 26.3553C67.8229 26.3553 69.0668 27.5335 69.0668 29.2553C69.0668 30.9589 67.8229 32.1552 66.3808 32.1552ZM66.3808 24.4705C63.7485 24.4705 61.6031 26.4823 61.6031 29.2553C61.6031 32.0102 63.7485 34.04 66.3808 34.04C69.0127 34.04 71.1581 32.0102 71.1581 29.2553C71.1581 26.4823 69.0127 24.4705 66.3808 24.4705ZM76.8025 32.1552C75.3606 32.1552 74.1164 30.9589 74.1164 29.2553C74.1164 27.5335 75.3606 26.3553 76.8025 26.3553C78.2446 26.3553 79.4886 27.5335 79.4886 29.2553C79.4886 30.9589 78.2446 32.1552 76.8025 32.1552ZM76.8025 24.4705C74.1702 24.4705 72.0253 26.4823 72.0253 29.2553C72.0253 32.0102 74.1702 34.04 76.8025 34.04C79.4344 34.04 81.5798 32.0102 81.5798 29.2553C81.5798 26.4823 79.4344 24.4705 76.8025 24.4705Z" fill="white"/>
<path d="M12.3176 36.4379L12.2344 36.358C11.9088 36.0116 11.7166 35.4737 11.7166 34.7773V34.9411V10.0606V10.2254C11.7166 9.47132 11.9407 8.90315 12.3162 8.5625L26.1806 22.5007L12.3176 36.4379Z" fill="url(#paint0_linear_1_258)"/>
<path d="M30.8036 27.1485L26.1815 22.5008L30.8031 17.854L36.3829 21.0409C37.0915 21.4458 37.4893 21.9674 37.5558 22.5004C37.5558 22.5008 37.5558 22.5018 37.5558 22.5025C37.4893 23.0343 37.0915 23.5564 36.3829 23.9611L30.8036 27.1485Z" fill="url(#paint1_linear_1_258)"/>
<path d="M13.306 36.8042C12.9187 36.8047 12.5808 36.6777 12.3172 36.4386L26.1803 22.501L30.8024 27.1485L14.5596 36.4268C14.1102 36.6829 13.6844 36.8042 13.306 36.8042ZM12.3133 36.6003C12.2888 36.578 12.2647 36.5542 12.2411 36.5296L12.3133 36.6003Z" fill="url(#paint2_linear_1_258)"/>
<path d="M26.1802 22.5009L12.3157 8.56274C12.5793 8.32413 12.9168 8.19757 13.3036 8.19757C13.6831 8.19757 14.1092 8.31929 14.5596 8.5759L30.8018 17.8541L26.1802 22.5009ZM14.5596 8.41165C14.1092 8.15493 13.6831 8.0332 13.3036 8.0332C13.3019 8.0332 13.3007 8.0332 13.2988 8.0332C13.301 8.0332 13.3027 8.0332 13.3054 8.0332C13.684 8.0332 14.1097 8.15493 14.5596 8.41165Z" fill="url(#paint3_linear_1_258)"/>
<path d="M12.3165 36.6034L12.313 36.6004C12.3142 36.6014 12.3156 36.6026 12.3165 36.6034ZM12.2409 36.5297L12.2338 36.5227C12.2365 36.5254 12.2386 36.5274 12.2409 36.5297Z" fill="black"/>
<path d="M13.3062 36.9689C12.9189 36.9689 12.5805 36.8419 12.3169 36.6028C12.3161 36.6019 12.3142 36.6012 12.313 36.6002L12.2409 36.5295C12.2386 36.5273 12.2365 36.5247 12.2338 36.522L12.3169 36.4385C12.5805 36.6776 12.9184 36.8046 13.3057 36.8041C13.6842 36.8041 14.11 36.6828 14.5594 36.4267L30.8021 27.1484L30.9062 27.2531L30.8008 27.3133L14.5594 36.591C14.1498 36.8244 13.7603 36.9461 13.4085 36.9663C13.3739 36.968 13.3397 36.9689 13.3062 36.9689Z" fill="url(#paint4_linear_1_258)"/>
<path d="M12.2344 36.522C11.9088 36.1756 11.7166 35.6383 11.7166 34.9413V34.7773C11.7166 35.4739 11.9088 36.0117 12.2344 36.3582L12.3176 36.4381L12.2344 36.522Z" fill="url(#paint5_linear_1_258)"/>
<path d="M30.9062 27.2529L30.8021 27.1483L36.3814 23.961C37.09 23.5563 37.4879 23.0342 37.5542 22.5024C37.5542 22.6976 37.511 22.8927 37.4249 23.0826C37.2514 23.4653 36.9034 23.827 36.3814 24.1253L30.9062 27.2529Z" fill="url(#paint6_linear_1_258)"/>
<path d="M37.5545 22.5008C37.5541 21.9124 37.1629 21.3235 36.3816 20.877C37.1637 21.3235 37.5554 21.9124 37.5545 22.5008Z" fill="#404040"/>
<path d="M37.5547 22.5005C37.4882 21.9674 37.0905 21.4458 36.3819 21.041L30.8021 17.8541L30.9062 17.7495L36.3819 20.8771C37.1631 21.3236 37.5542 21.912 37.5547 22.5005Z" fill="url(#paint7_linear_1_258)"/>
<path d="M11.7217 9.86046C11.7865 8.70472 12.4116 8.03714 13.2958 8.0332C12.9124 8.03545 12.5785 8.16202 12.3171 8.39883L12.314 8.40153C12.2864 8.4265 12.2602 8.45294 12.2344 8.48017C11.9407 8.79258 11.7554 9.26058 11.7217 9.86046Z" fill="#404040"/>
<path d="M11.7166 10.2253V10.0609C11.7166 10.0587 11.7166 10.0569 11.7166 10.0547V10.0534C11.7166 9.99135 11.7183 9.93079 11.7213 9.87192V9.8692L11.7217 9.86667C11.7217 9.86479 11.7217 9.86132 11.7217 9.86132V9.86001C11.7554 9.26015 11.9407 8.79215 12.2344 8.47974L12.3162 8.56231C11.9407 8.90296 11.7166 9.47104 11.7166 10.2253ZM12.314 8.4011L12.3171 8.39795L12.314 8.4011Z" fill="url(#paint8_linear_1_258)"/>
<path d="M30.8016 17.8541L14.5594 8.5759C14.1091 8.31929 13.6829 8.19757 13.3035 8.19757C12.9166 8.19757 12.5792 8.32413 12.3156 8.56274L12.2338 8.48017C12.2597 8.45294 12.2858 8.4265 12.3134 8.40153C12.3142 8.40063 12.3156 8.39973 12.3165 8.39883C12.5779 8.16202 12.9118 8.03545 13.2952 8.0332C13.2961 8.0332 13.2973 8.0332 13.2987 8.0332C13.3005 8.0332 13.3017 8.0332 13.3035 8.0332C13.6829 8.0332 14.1091 8.15493 14.5594 8.41165L30.9062 17.7492L30.8016 17.8541Z" fill="url(#paint9_linear_1_258)"/>
<path d="M144.165 0.46875H8.01746C4.15485 0.46875 1.02359 3.61675 1.02359 7.5V37.5C1.02359 41.3833 4.15485 44.5312 8.01746 44.5312H144.165C148.027 44.5312 151.159 41.3833 151.159 37.5V7.5C151.159 3.61675 148.027 0.46875 144.165 0.46875Z" stroke="#A6A6A6"/>
</g>
<defs>
<linearGradient id="paint0_linear_1_258" x1="24.9513" y1="9.79823" x2="6.07124" y2="28.5779" gradientUnits="userSpaceOnUse">
<stop stop-color="#00A0FF"/>
<stop offset="0.00657445" stop-color="#00A1FF"/>
<stop offset="0.2601" stop-color="#00BEFF"/>
<stop offset="0.5122" stop-color="#00D2FF"/>
<stop offset="0.7604" stop-color="#00DFFF"/>
<stop offset="1" stop-color="#00E3FF"/>
</linearGradient>
<linearGradient id="paint1_linear_1_258" x1="38.4191" y1="22.5016" x2="11.3422" y2="22.5016" gradientUnits="userSpaceOnUse">
<stop stop-color="#FFE000"/>
<stop offset="0.4087" stop-color="#FFBD00"/>
<stop offset="0.7754" stop-color="#FFA500"/>
<stop offset="1" stop-color="#FF9C00"/>
</linearGradient>
<linearGradient id="paint2_linear_1_258" x1="28.3384" y1="25.0831" x2="2.73567" y2="50.5498" gradientUnits="userSpaceOnUse">
<stop stop-color="#FF3A44"/>
<stop offset="1" stop-color="#C31162"/>
</linearGradient>
<linearGradient id="paint3_linear_1_258" x1="8.72226" y1="0.198252" x2="20.1549" y2="11.5702" gradientUnits="userSpaceOnUse">
<stop stop-color="#32A071"/>
<stop offset="0.0685" stop-color="#2DA771"/>
<stop offset="0.4762" stop-color="#15CF74"/>
<stop offset="0.8009" stop-color="#06E775"/>
<stop offset="1" stop-color="#00F076"/>
</linearGradient>
<linearGradient id="paint4_linear_1_258" x1="28.3381" y1="25.083" x2="2.73543" y2="50.5497" gradientUnits="userSpaceOnUse">
<stop stop-color="#CC2E36"/>
<stop offset="1" stop-color="#9C0E4E"/>
</linearGradient>
<linearGradient id="paint5_linear_1_258" x1="24.9513" y1="9.79831" x2="6.07122" y2="28.578" gradientUnits="userSpaceOnUse">
<stop stop-color="#008DE0"/>
<stop offset="0.00657445" stop-color="#008DE0"/>
<stop offset="0.2601" stop-color="#00A7E0"/>
<stop offset="0.5122" stop-color="#00B8E0"/>
<stop offset="0.7604" stop-color="#00C4E0"/>
<stop offset="1" stop-color="#00C7E0"/>
</linearGradient>
<linearGradient id="paint6_linear_1_258" x1="38.4176" y1="22.5014" x2="11.3408" y2="22.5014" gradientUnits="userSpaceOnUse">
<stop stop-color="#E0C500"/>
<stop offset="0.4087" stop-color="#E0A600"/>
<stop offset="0.7754" stop-color="#E09100"/>
<stop offset="1" stop-color="#E08900"/>
</linearGradient>
<linearGradient id="paint7_linear_1_258" x1="38.418" y1="22.5016" x2="11.3412" y2="22.5016" gradientUnits="userSpaceOnUse">
<stop stop-color="#FFE840"/>
<stop offset="0.4087" stop-color="#FFCE40"/>
<stop offset="0.7754" stop-color="#FFBC40"/>
<stop offset="1" stop-color="#FFB540"/>
</linearGradient>
<linearGradient id="paint8_linear_1_258" x1="24.9512" y1="9.79804" x2="6.07124" y2="28.5776" gradientUnits="userSpaceOnUse">
<stop stop-color="#40B8FF"/>
<stop offset="0.00657445" stop-color="#40B9FF"/>
<stop offset="0.2601" stop-color="#40CEFF"/>
<stop offset="0.5122" stop-color="#40DDFF"/>
<stop offset="0.7604" stop-color="#40E7FF"/>
<stop offset="1" stop-color="#40EAFF"/>
</linearGradient>
<linearGradient id="paint9_linear_1_258" x1="8.7221" y1="0.198257" x2="20.1547" y2="11.5701" gradientUnits="userSpaceOnUse">
<stop stop-color="#65B895"/>
<stop offset="0.0685" stop-color="#62BD95"/>
<stop offset="0.4762" stop-color="#50DB97"/>
<stop offset="0.8009" stop-color="#44ED98"/>
<stop offset="1" stop-color="#40F498"/>
</linearGradient>
<clipPath id="clip0_1_258">
<rect width="152" height="45" fill="white"/>
</clipPath>
</defs>
</svg>
