<svg width="27" height="27" viewBox="0 0 27 27" fill="none" xmlns="http://www.w3.org/2000/svg">
<path d="M4.77978 0.625488H21.7558C24.3296 0.625488 26.4104 2.71623 26.4104 5.30219V21.698C26.4104 24.284 24.3296 26.3748 21.7558 26.3748H4.77978C2.20597 26.3748 0.125031 24.284 0.125031 21.698V5.30219C0.125031 2.71623 2.20597 0.625488 4.77978 0.625488Z" fill="#470137"/>
<path d="M13.9471 8.1243L10.6613 13.5712L14.1661 19.3483C14.188 19.3923 14.1989 19.4364 14.188 19.4804C14.177 19.5244 14.1333 19.4914 14.0675 19.5023H11.5594C11.3843 19.5023 11.2637 19.4914 11.1871 19.3814C10.957 18.9192 10.7161 18.468 10.4862 18.0058C10.2561 17.5547 10.0043 17.0925 9.74134 16.6194C9.47851 16.1462 9.21568 15.6729 8.95286 15.1888H8.93097C8.70092 15.662 8.44898 16.1351 8.19715 16.6083C7.94522 17.0815 7.69328 17.5547 7.45234 18.0168C7.20051 18.479 6.94857 18.9522 6.69663 19.4033C6.65286 19.5134 6.56522 19.5244 6.4448 19.5244H4.03528C3.99141 19.5244 3.95863 19.5464 3.95863 19.4914C3.94764 19.4473 3.95863 19.4033 3.98051 19.3703L7.38669 13.7583L4.06816 8.11325C4.03528 8.06927 4.02428 8.02519 4.04617 8.00321C4.06816 7.97017 4.11193 7.95923 4.1557 7.95923H6.64187C6.69663 7.95923 6.7514 7.97017 6.79527 7.98122C6.83904 8.00321 6.87192 8.03624 6.9048 8.08022C7.11286 8.55343 7.3538 9.02665 7.60574 9.49976C7.86856 9.97298 8.1205 10.4351 8.39422 10.8973C8.65715 11.3595 8.89809 11.8216 9.12804 12.2948H9.14993C9.37998 11.8106 9.62092 11.3374 9.86186 10.8752C10.1028 10.4131 10.3547 9.95089 10.6066 9.48872C10.8585 9.02665 11.0994 8.55343 11.3404 8.10231C11.3514 8.05823 11.3733 8.01425 11.4062 7.99226C11.4499 7.97017 11.4938 7.95923 11.5486 7.97017H13.8594C13.9142 7.95923 13.969 7.99226 13.98 8.04729C13.9909 8.05823 13.969 8.10231 13.9471 8.1243Z" fill="#FF61F6"/>
<path d="M19.0072 19.7332C18.1967 19.7443 17.3862 19.5792 16.6524 19.2381C15.9624 18.9189 15.3929 18.3908 14.9986 17.7416C14.5934 17.0704 14.3962 16.234 14.3962 15.2326C14.3853 14.4183 14.5934 13.6151 14.9986 12.9108C15.4148 12.1955 16.0171 11.6013 16.7401 11.2052C17.5067 10.7761 18.4267 10.567 19.5109 10.567C19.5657 10.567 19.6424 10.567 19.7409 10.578C19.8395 10.5889 19.9491 10.5889 20.0805 10.6V7.12271C20.0805 7.0457 20.1133 7.00172 20.19 7.00172H22.4132C22.468 6.99068 22.5119 7.03466 22.5228 7.07873C22.5228 7.08968 22.5228 7.10072 22.5228 7.10072V17.5765C22.5228 17.7746 22.5338 17.9946 22.5448 18.2368C22.5666 18.4678 22.5775 18.6879 22.5885 18.875C22.5885 18.952 22.5556 19.0181 22.479 19.0511C21.9095 19.2932 21.3071 19.4692 20.6938 19.5792C20.1352 19.6782 19.5767 19.7332 19.0072 19.7332ZM20.0805 17.5325V12.6907C19.9819 12.6688 19.8833 12.6468 19.7848 12.6357C19.6642 12.6247 19.5438 12.6137 19.4233 12.6137C18.9962 12.6137 18.5691 12.7018 18.1857 12.8998C17.8134 13.0868 17.4958 13.362 17.2548 13.7141C17.0138 14.0662 16.8934 14.5394 16.8934 15.1116C16.8824 15.4968 16.9481 15.8819 17.0795 16.245C17.1891 16.5421 17.3534 16.8062 17.5724 17.0263C17.7805 17.2244 18.0324 17.3784 18.3171 17.4665C18.6128 17.5655 18.9195 17.6096 19.2262 17.6096C19.3904 17.6096 19.5438 17.5985 19.6862 17.5875C19.8285 17.5985 19.9491 17.5765 20.0805 17.5325Z" fill="#FF61F6"/>
</svg>
